<?xml version="1.0" encoding="UTF-8"?><svg id="Layer_1" xmlns="http://www.w3.org/2000/svg" viewBox="0 0 183.67 183.67"><defs><style>.cls-1{fill:#fff;}</style></defs><path class="cls-1" d="M91.83,45.37c7.41,.06,14.83-.24,22.22,.48,4.99,.48,9.71,1.82,13.84,4.8,5.64,4.06,8.76,9.66,9.98,16.42,.75,4.17,.84,8.38,.87,12.59,.08,10.33,.21,20.67-.16,31-.14,3.87-.56,7.72-1.87,11.39-2.95,8.25-8.74,13.47-17.17,15.75-4.89,1.32-9.92,1.38-14.93,1.42-10.51,.09-21.02,.22-31.53-.18-3.77-.14-7.51-.59-11.08-1.88-8.19-2.97-13.4-8.72-15.67-17.12-1.33-4.92-1.38-9.99-1.43-15.03-.09-10.44-.22-20.88,.17-31.32,.14-3.8,.58-7.57,1.88-11.18,2.95-8.21,8.71-13.41,17.1-15.68,5.13-1.39,10.4-1.36,15.66-1.45,4.04-.07,8.07-.01,12.11-.01Zm38.47,46.96c0-3.97,.06-7.94-.02-11.9-.08-4.03-.04-8.08-.78-12.07-1.09-5.85-4.17-10.18-9.71-12.56-3.05-1.31-6.32-1.65-9.6-1.77-10.26-.38-20.53-.26-30.8-.17-3.86,.03-7.73,.05-11.55,.77-5.85,1.1-10.18,4.18-12.54,9.73-1.3,3.05-1.64,6.32-1.76,9.6-.38,10.26-.26,20.53-.17,30.8,.03,3.86,.05,7.73,.78,11.55,1.11,5.85,4.19,10.17,9.75,12.53,3.02,1.28,6.25,1.63,9.5,1.75,10.3,.38,20.6,.26,30.9,.17,3.82-.03,7.66-.05,11.45-.76,3.62-.68,6.8-2.14,9.4-4.83,3.09-3.2,4.33-7.16,4.72-11.44,.65-7.12,.39-14.26,.43-21.39Z"/><path class="cls-1" d="M115.94,92.29c.02,13.28-10.78,24.11-24.09,24.13-13.28,.02-24.11-10.78-24.14-24.09-.02-13.28,10.78-24.11,24.09-24.13,13.28-.02,24.11,10.78,24.14,24.09Zm-23.98-15.62c-8.55-.14-15.58,6.75-15.78,15.46-.19,8.56,6.79,15.69,15.52,15.83,8.55,.14,15.58-6.75,15.78-15.46,.19-8.56-6.79-15.69-15.52-15.83Z"/><path class="cls-1" d="M116.91,61.6c3.12,0,5.63,2.51,5.64,5.63,0,3.12-2.51,5.63-5.63,5.63-3.12,0-5.63-2.51-5.63-5.63,0-3.12,2.51-5.63,5.63-5.64Z"/></svg>