<?xml version="1.0" encoding="UTF-8"?><svg id="Layer_1" xmlns="http://www.w3.org/2000/svg" viewBox="0 0 183.67 183.67"><defs><style>.cls-1{fill:#fff;}</style></defs><path class="cls-1" d="M101.64,75.64c4.16,0,7.93,.05,11.7-.02,1.78-.04,2.44,.66,2.25,2.41-.41,3.76-.82,7.52-1.07,11.29-.15,2.16-1.09,2.86-3.21,2.74-2.93-.17-5.87-.04-9.12-.04-.08,.99-.21,1.87-.21,2.75-.01,13.03,0,26.06,0,39.1,0,3.12-.3,3.41-3.47,3.4-4.29-.02-8.58-.12-12.87,.05-2.41,.09-3.33-.72-3.31-3.14,.11-12.19,.07-24.37,.18-36.56,.05-5.66,.15-5.66-5.54-5.7-.67,0-1.47,.23-1.99-.05-.73-.4-1.76-1.16-1.78-1.8-.15-4.11-.15-8.24,.02-12.35,.03-.65,1.06-1.68,1.76-1.8,1.64-.27,3.36-.21,5.03-.06,1.98,.18,2.68-.46,2.59-2.53-.16-3.35-.1-6.73,.05-10.08,.42-9.5,7.04-16.23,16.54-16.68,4.78-.23,9.59-.09,14.38-.18,1.57-.03,2.3,.49,2.27,2.17-.07,3.87-.07,7.74,0,11.6,.03,1.66-.65,2.22-2.26,2.16-2.27-.09-4.54-.09-6.81,.01-3.09,.15-4.59,1.57-5,4.61-.14,.99-.1,2.01-.11,3.02-.02,1.75,0,3.5,0,5.69Z"/></svg>