<?xml version="1.0" encoding="UTF-8"?><svg id="Layer_1" xmlns="http://www.w3.org/2000/svg" viewBox="0 0 183.67 183.67"><defs><style>.cls-1{fill:#fff;}</style></defs><path class="cls-1" d="M76.76,114.35c-8.37-.7-14.03-4.72-17.22-12.55,2.79,.22,5.35,.38,7.88-.54-8.88-2.73-13.7-8.61-14.31-17.87,2.61,1.03,5.18,1.86,8.06,1.79-3.78-2.86-6.42-6.46-7.46-11.09-1.03-4.59-.49-8.99,1.86-13.29,10.03,11.76,22.66,18.09,38.13,19.24-.08-.69-.12-1.17-.19-1.64-1.91-12.4,9.1-23.04,21.47-20.76,3.55,.65,6.63,2.2,9.22,4.69,.66,.63,1.26,.76,2.13,.54,3.28-.83,6.44-1.95,9.4-3.62,.2-.11,.41-.2,.81-.39-1.43,4.29-4.13,7.34-7.69,9.7,.04,.11,.07,.22,.11,.32,1.62-.32,3.27-.57,4.87-.99,1.63-.43,3.22-1.03,5-1.4-1.38,1.6-2.69,3.26-4.15,4.77-1.25,1.29-2.71,2.37-4.01,3.61-.34,.32-.63,.88-.63,1.33,.21,10.52-2.49,20.25-7.9,29.25-5.21,8.66-12.27,15.31-21.39,19.71-5.74,2.77-11.81,4.33-18.16,4.85-6.41,.53-12.73,0-18.93-1.7-4.62-1.26-9.01-3.11-13.09-5.65-.13-.08-.25-.19-.56-.41,6.64,.63,12.84-.36,18.73-2.98,2.8-1.24,5.47-2.73,8.01-4.91Z"/></svg>